<?xml version="1.0" encoding="UTF-8" standalone="no"?>
<!-- Created with Inkscape (http://www.inkscape.org/) -->

<svg
   xmlns:dc="http://purl.org/dc/elements/1.1/"
   xmlns:cc="http://creativecommons.org/ns#"
   xmlns:rdf="http://www.w3.org/1999/02/22-rdf-syntax-ns#"
   xmlns:svg="http://www.w3.org/2000/svg"
   xmlns="http://www.w3.org/2000/svg"
   xmlns:sodipodi="http://sodipodi.sourceforge.net/DTD/sodipodi-0.dtd"
   xmlns:inkscape="http://www.inkscape.org/namespaces/inkscape"
   width="744"
   height="1056"
   id="svg2"
   version="1.1"
   inkscape:version="0.92.4 (5da689c313, 2019-01-14)"
   sodipodi:docname="working_assets.svg">
  <defs
     id="defs4" />
  <sodipodi:namedview
     id="base"
     pagecolor="#ffffff"
     bordercolor="#666666"
     borderopacity="1.0"
     inkscape:pageopacity="0.0"
     inkscape:pageshadow="2"
     inkscape:zoom="0.27395845"
     inkscape:cx="-642.27783"
     inkscape:cy="175.93864"
     inkscape:document-units="px"
     inkscape:current-layer="layer1"
     showgrid="false"
     inkscape:showpageshadow="false"
     showguides="true"
     inkscape:guide-bbox="true"
     inkscape:snap-global="true"
     inkscape:window-width="1782"
     inkscape:window-height="976"
     inkscape:window-x="75"
     inkscape:window-y="12"
     inkscape:window-maximized="1"
     showborder="false">
    <sodipodi:guide
       orientation="0,1"
       position="0,634"
       id="guide3755"
       inkscape:locked="false" />
    <sodipodi:guide
       orientation="1,0"
       position="372,0"
       id="guide3757"
       inkscape:locked="false" />
    <sodipodi:guide
       orientation="1,0"
       position="24,0"
       id="guide3759"
       inkscape:locked="false" />
    <sodipodi:guide
       orientation="0,1"
       position="0,1032"
       id="guide3761"
       inkscape:locked="false" />
    <sodipodi:guide
       orientation="1,0"
       position="720,0"
       id="guide3763"
       inkscape:locked="false" />
    <sodipodi:guide
       orientation="0,1"
       position="0,24"
       id="guide3765"
       inkscape:locked="false" />
    <inkscape:grid
       type="xygrid"
       id="grid3767"
       empspacing="5"
       visible="true"
       enabled="true"
       snapvisiblegridlinesonly="true" />
    <sodipodi:guide
       orientation="0,1"
       position="0,846"
       id="guide3783"
       inkscape:locked="false" />
    <sodipodi:guide
       orientation="1,0"
       position="186,0"
       id="guide3785"
       inkscape:locked="false" />
    <sodipodi:guide
       orientation="0,1"
       position="0,210"
       id="guide3018"
       inkscape:locked="false" />
    <sodipodi:guide
       orientation="0,1"
       position="0,422"
       id="guide3020"
       inkscape:locked="false" />
    <sodipodi:guide
       orientation="1,0"
       position="558,0"
       id="guide3022"
       inkscape:locked="false" />
    <sodipodi:guide
       orientation="0,1"
       position="0,316"
       id="guide3113"
       inkscape:locked="false" />
    <sodipodi:guide
       orientation="0,1"
       position="0,740"
       id="guide3196"
       inkscape:locked="false" />
    <sodipodi:guide
       orientation="0,1"
       position="0,528"
       id="guide3063"
       inkscape:locked="false" />
    <sodipodi:guide
       orientation="0,1"
       position="0,369"
       id="guide3065"
       inkscape:locked="false" />
    <sodipodi:guide
       orientation="0,1"
       position="0,687"
       id="guide3067"
       inkscape:locked="false" />
  </sodipodi:namedview>
  <metadata
     id="metadata7">
    <rdf:RDF>
      <cc:Work
         rdf:about="">
        <dc:format>image/svg+xml</dc:format>
        <dc:type
           rdf:resource="http://purl.org/dc/dcmitype/StillImage" />
        <dc:title />
      </cc:Work>
    </rdf:RDF>
  </metadata>
  <g
     inkscape:label="Layer 1"
     inkscape:groupmode="layer"
     id="layer1"
     transform="translate(0,3.63783)">
    <rect
       style="fill:#ffffff;fill-opacity:1;stroke:#808080;stroke-width:0.75590551;stroke-linecap:butt;stroke-linejoin:miter;stroke-miterlimit:4;stroke-dasharray:none;stroke-opacity:1"
       id="rect4266"
       width="743.24408"
       height="1055.244"
       x="0.37795272"
       y="-3.2598772"
       ry="28.41267"
       rx="28.421436" />
    <text
       xml:space="preserve"
       style="font-style:normal;font-weight:normal;line-height:0%;font-family:sans-serif;letter-spacing:0px;word-spacing:0px;fill:#000000;fill-opacity:1;stroke:none"
       x="-417.14285"
       y="533.14288"
       id="text3769"
       transform="translate(0,-3.63783)"><tspan
         sodipodi:role="line"
         id="tspan3771"
         x="-417.14285"
         y="533.14288"
         style="font-size:40px;line-height:1.25;font-family:sans-serif">1056</tspan></text>
    <text
       xml:space="preserve"
       style="font-style:normal;font-weight:normal;line-height:0%;font-family:sans-serif;letter-spacing:0px;word-spacing:0px;fill:#000000;fill-opacity:1;stroke:none"
       x="-410"
       y="587.42859"
       id="text3773"
       transform="translate(0,-3.63783)"><tspan
         sodipodi:role="line"
         id="tspan3775"
         x="-410"
         y="587.42859"
         style="font-size:40px;line-height:1.25;font-family:sans-serif">744</tspan></text>
    <g
       style="fill:none;stroke:#000000;stroke-opacity:1"
       id="g4233"
       transform="matrix(0.23416646,0,0,0.23410596,-791.1461,675.98482)" />
    <g
       transform="matrix(0.23416646,0,0,0.23410596,-791.146,675.98482)"
       id="g4211"
       style="fill:none;stroke:#000000;stroke-opacity:1"
       clip-path="none" />
    <g
       style="fill:none;stroke:#000000;stroke-opacity:1"
       id="g4227"
       transform="matrix(0.23416646,0,0,0.23410596,-791.1461,675.98482)" />
    <g
       id="g5492"
       transform="matrix(0.23261252,0,0,0.23261252,-1008.8508,677.12124)">
      <rect
         y="536.54938"
         x="2406.7065"
         height="295.68549"
         width="85.256371"
         id="rect4124"
         style="fill:#000000;fill-opacity:1;stroke:none" />
      <path
         sodipodi:nodetypes="ssscssscssscs"
         style="fill:#000000;fill-opacity:1;stroke:none"
         d="m 2917.8563,395.12877 c 67.135,120.80453 23.601,273.14486 -97.235,340.26188 -120.8361,67.11691 -273.2161,23.5947 -340.3501,-97.20972 -17.88,-32.17311 -28.44,-67.89332 -30.889,-104.57183 -9.342,137.92083 -128.747,242.09126 -266.6621,232.71366 -137.914,-9.37771 -242.111,-128.75233 -232.731,-266.63076 9.38,-137.87843 128.786,-242.04886 266.7,-232.67126 36.206,2.4619 71.4431,12.76531 103.7251,30.22171 -118.1921,-70.88592 -156.8751,-224.529044 -85.9451,-343.145874 70.9301,-118.616826 224.6131,-157.289636 343.2611,-86.378126 118.647,70.911526 157.3301,224.554657 86.4,343.17148 -21.341,35.68961 -51.243,65.49972 -86.812,86.88252 121.024,-66.97031 273.4041,-23.4481 340.5381,97.35632 z"
         id="path3979-1-6"
         inkscape:connector-curvature="0" />
    </g>
    <path
       style="fill:#000000;stroke:none"
       d="m -748.1677,870.70948 c 0,-6.84718 -0.3804,-11.79237 -0.3804,-18.63956 14.2016,0 29.5893,0 43.7908,0 0,-16.27614 0,-17.42722 0,-33.70337 -27.7212,0.89027 -57.7229,2.9423 -83.6838,-8.45919 -20.095,-10.99257 -25.6398,-36.58162 -21.5883,-57.61868 3.4678,-23.73446 16.7058,-44.81198 33.9755,-61.04524 22.473,-23.95897 51.1335,-40.13286 81.0555,-53.14647 30.5431,13.23366 59.8355,29.93681 82.5935,54.52752 20.4987,19.20045 34.1566,46.3373 33.737,74.74951 0.4446,20.50781 -12.3006,42.17925 -33.3231,46.65422 -23.5181,6.49153 -47.3211,5.33981 -71.4639,4.33833 0,16.27615 0,17.42723 0,33.70337 14.2015,0 27.217,0 41.4186,0 0,6.84719 0.3805,11.79238 0.3805,18.63956 -32.5189,-0.22821 -71.3883,-0.22821 -106.5119,0 z"
       id="path2985"
       inkscape:connector-curvature="0"
       sodipodi:nodetypes="cccccccccccccccc" />
    <path
       style="fill:#ff0000;fill-opacity:1;stroke:none"
       d="M -183.2153,869.48454 -66.909,753.17827 -183.2153,636.87202 -299.5216,753.17827 z"
       id="path4884"
       inkscape:connector-curvature="0" />
    <path
       style="fill:#ff0000;fill-opacity:1;stroke:none"
       d="m -950.9706,870.70948 c -10.9258,-23.37857 -25.0295,-45.22455 -41.7864,-64.72519 -10.8065,-12.57599 -22.6853,-24.15496 -34.7197,-35.52444 -9.4004,-8.881 -18.9678,-17.71383 -26.6595,-28.15212 -5.1963,-7.05198 -9.5326,-14.89765 -11.5985,-23.45043 -3.7417,-15.49069 0.3289,-32.09694 8.0084,-46.01212 4.4974,-8.14928 10.2517,-15.64396 17.3397,-21.60162 10.5313,-8.85187 24.2717,-14.14442 37.898,-12.98923 12.4962,1.05939 24.1821,7.4205 33.301,16.15673 8.0705,7.73176 14.3568,17.36995 18.351,27.93047 3.9942,-10.56052 10.2804,-20.19871 18.3509,-27.93047 9.1189,-8.73623 20.8049,-15.09734 33.301,-16.15673 13.6263,-1.15519 27.3667,4.13736 37.898,12.98923 7.088,5.95766 12.8423,13.45234 17.3397,21.60162 7.6795,13.91518 11.7501,30.52143 8.0084,46.01212 -2.0658,8.55278 -6.4022,16.39845 -11.5985,23.45043 -7.6917,10.43829 -17.2591,19.27112 -26.6595,28.15212 -12.0344,11.36948 -23.9132,22.94845 -34.7197,35.52444 -16.7569,19.50064 -30.8606,41.34662 -41.7864,64.72519"
       id="path3940"
       inkscape:connector-curvature="0"
       sodipodi:nodetypes="csssssssscssssssssc" />
    <text
       xml:space="preserve"
       style="font-style:normal;font-variant:normal;font-weight:normal;font-stretch:normal;line-height:0%;font-family:'Levenim MT';-inkscape-font-specification:'Levenim MT';letter-spacing:0px;word-spacing:0px;fill:#000000;fill-opacity:1;stroke:none"
       x="-758.57141"
       y="435.2193"
       id="text3812"><tspan
         sodipodi:role="line"
         id="tspan3814"
         x="-758.57141"
         y="435.2193"
         style="font-size:64px;line-height:1.25">A2345678910JQKJoker</tspan></text>
    <path
       style="fill:#ff0000;fill-opacity:1;stroke:none"
       d="m -402.99806,1353.6861 44.99999,-45 -44.99999,-45 -45,45 z"
       id="path4884-1-45"
       inkscape:connector-curvature="0" />
    <text
       xml:space="preserve"
       style="font-style:normal;font-variant:normal;font-weight:bold;font-stretch:normal;line-height:0%;font-family:'Levenim MT';-inkscape-font-specification:'Sans Bold';letter-spacing:0px;word-spacing:0px;fill:#ff0000;fill-opacity:1;stroke:none"
       x="-422.29922"
       y="919.95966"
       id="text3216"
       transform="scale(0.72303286,1.383063)"><tspan
         sodipodi:role="line"
         id="tspan3218"
         x="-422.29922"
         y="919.95966"
         style="font-size:92.16419983px;line-height:1.25">1</tspan></text>
    <rect
       style="fill:none;stroke:#000000;stroke-width:1.73344946;stroke-linecap:butt;stroke-linejoin:miter;stroke-miterlimit:4;stroke-opacity:0.79894182;stroke-dasharray:none"
       id="rect3220"
       width="88.266151"
       height="198.26656"
       x="-299.13327"
       y="1153.2289"
       rx="0"
       ry="0" />
    <text
       xml:space="preserve"
       style="font-style:normal;font-variant:normal;font-weight:bold;font-stretch:normal;line-height:0%;font-family:'Levenim MT';-inkscape-font-specification:'Sans Bold';letter-spacing:0px;word-spacing:0px;fill:#ff0000;fill-opacity:1;stroke:none"
       x="-390.16916"
       y="890.22247"
       id="text3990"
       transform="scale(0.70033662,1.4278848)"><tspan
         sodipodi:role="line"
         id="tspan3992"
         x="-390.16916"
         y="890.22247"
         style="font-size:87.99321747px;line-height:1.25">0</tspan></text>
    <path
       style="fill:#ff0000;fill-opacity:1;stroke:none"
       d="m -270,1352.3621 30,-30 -30,-30 -30,30 z"
       id="path4884-1-4-5"
       inkscape:connector-curvature="0" />
    <g
       id="g4045"
       transform="translate(-425.23723,-203.64675)">
      <text
         transform="scale(0.88552884,1.1292687)"
         id="text3216-1"
         y="1283.7683"
         x="-201.77049"
         style="font-style:normal;font-variant:normal;font-weight:bold;font-stretch:normal;line-height:0%;font-family:'Levenim MT';-inkscape-font-specification:'Sans Bold';letter-spacing:0px;word-spacing:0px;fill:#ff0000;fill-opacity:1;stroke:none"
         xml:space="preserve"><tspan
           y="1283.7683"
           x="-201.77049"
           id="tspan3218-7"
           sodipodi:role="line"
           style="font-size:112.87738037px;line-height:1.25">1</tspan></text>
      <text
         transform="scale(0.85773181,1.1658656)"
         id="text3990-1"
         y="1242.3088"
         x="-149.35519"
         style="font-style:normal;font-variant:normal;font-weight:bold;font-stretch:normal;line-height:0%;font-family:'Levenim MT';-inkscape-font-specification:'Sans Bold';letter-spacing:0px;word-spacing:0px;fill:#ff0000;fill-opacity:1;stroke:none"
         xml:space="preserve"><tspan
           y="1242.3088"
           x="-149.35519"
           id="tspan3992-5"
           sodipodi:role="line"
           style="font-size:107.76900482px;line-height:1.25">0</tspan></text>
      <path
         inkscape:connector-curvature="0"
         id="path4884-1-4-5-2"
         d="m -125.66929,1559.7192 45.000001,-45 -45.000001,-45 -45,45 z"
         style="fill:#ff0000;fill-opacity:1;stroke:none" />
    </g>
    <path
       style="fill:#ff0000;fill-opacity:1;stroke:none"
       d="m 1481.3334,1367.3315 30,-30 -30,-30 -30,30 z"
       id="path4884-1-4-5-3"
       inkscape:connector-curvature="0" />
    <path
       style="fill:#ff0000;fill-opacity:1;stroke:none"
       d="m 1182.985,947.13517 30,30 -30,30.00003 -30,-30.00003 z"
       id="path4884-1-4-5-3-5"
       inkscape:connector-curvature="0" />
    <g
       id="g5492-7-8"
       transform="matrix(0.06,0,0,0.05999955,267.03586,1236.4284)">
      <rect
         y="536.54938"
         x="2406.7065"
         height="295.68549"
         width="85.256371"
         id="rect4124-6-9"
         style="fill:#000000;fill-opacity:1;stroke:none" />
      <path
         sodipodi:nodetypes="ssscssscssscs"
         style="fill:#000000;fill-opacity:1;stroke:none"
         d="m 2917.8563,395.12877 c 67.135,120.80453 23.601,273.14486 -97.235,340.26188 -120.8361,67.11691 -273.2161,23.5947 -340.3501,-97.20972 -17.88,-32.17311 -28.44,-67.89332 -30.889,-104.57183 -9.342,137.92083 -128.747,242.09126 -266.6621,232.71366 -137.914,-9.37771 -242.111,-128.75233 -232.731,-266.63076 9.38,-137.87843 128.786,-242.04886 266.7,-232.67126 36.206,2.4619 71.4431,12.76531 103.7251,30.22171 -118.1921,-70.88592 -156.8751,-224.529044 -85.9451,-343.145874 70.9301,-118.616826 224.6131,-157.289636 343.2611,-86.378126 118.647,70.911526 157.3301,224.554657 86.4,343.17148 -21.341,35.68961 -51.243,65.49972 -86.812,86.88252 121.024,-66.97031 273.4041,-23.4481 340.5381,97.35632 z"
         id="path3979-1-6-1-2"
         inkscape:connector-curvature="0" />
    </g>
    <text
       xml:space="preserve"
       style="font-style:normal;font-variant:normal;font-weight:bold;font-stretch:normal;line-height:0%;font-family:'Levenim MT';-inkscape-font-specification:'Sans Bold';letter-spacing:0px;word-spacing:0px;fill:#ff0000;fill-opacity:1;stroke:none"
       x="1175.5646"
       y="882.07831"
       id="text3216-7-7"
       transform="scale(0.72303286,1.383063)"><tspan
         sodipodi:role="line"
         id="tspan3218-6-4"
         x="1175.5646"
         y="882.07831"
         style="font-size:92.16419983px;line-height:1.25">1</tspan></text>
    <text
       xml:space="preserve"
       style="font-style:normal;font-variant:normal;font-weight:bold;font-stretch:normal;line-height:0%;font-family:'Levenim MT';-inkscape-font-specification:'Sans Bold';letter-spacing:0px;word-spacing:0px;fill:#ff0000;fill-opacity:1;stroke:none"
       x="1259.4777"
       y="853.53021"
       id="text3990-14-0"
       transform="scale(0.70033661,1.4278848)"><tspan
         sodipodi:role="line"
         id="tspan3992-2-9"
         x="1259.4777"
         y="853.53021"
         style="font-size:87.99321747px;line-height:1.25">0</tspan></text>
    <path
       style="fill:#ff0000;fill-opacity:1;stroke:none"
       d="m 885.30805,1299.9698 30,-30 -30,-30 -30,30 z"
       id="path4884-1-4-5-3-4"
       inkscape:connector-curvature="0" />
    <g
       id="g5492-7-8-8"
       transform="matrix(0.06,0,0,-0.05999955,475.07446,1271.0385)">
      <rect
         y="536.54938"
         x="2406.7065"
         height="295.68549"
         width="85.256371"
         id="rect4124-6-9-8"
         style="fill:#000000;fill-opacity:1;stroke:none" />
      <path
         sodipodi:nodetypes="ssscssscssscs"
         style="fill:#000000;fill-opacity:1;stroke:none"
         d="m 2917.8563,395.12877 c 67.135,120.80453 23.601,273.14486 -97.235,340.26188 -120.8361,67.11691 -273.2161,23.5947 -340.3501,-97.20972 -17.88,-32.17311 -28.44,-67.89332 -30.889,-104.57183 -9.342,137.92083 -128.747,242.09126 -266.6621,232.71366 -137.914,-9.37771 -242.111,-128.75233 -232.731,-266.63076 9.38,-137.87843 128.786,-242.04886 266.7,-232.67126 36.206,2.4619 71.4431,12.76531 103.7251,30.22171 -118.1921,-70.88592 -156.8751,-224.529044 -85.9451,-343.145874 70.9301,-118.616826 224.6131,-157.289636 343.2611,-86.378126 118.647,70.911526 157.3301,224.554657 86.4,343.17148 -21.341,35.68961 -51.243,65.49972 -86.812,86.88252 121.024,-66.97031 273.4041,-23.4481 340.5381,97.35632 z"
         id="path3979-1-6-1-2-2"
         inkscape:connector-curvature="0" />
    </g>
    <g
       id="g5492-7-4"
       transform="matrix(0.18,0,0,-0.17999864,738.65795,1347.0409)">
      <rect
         y="536.54938"
         x="2406.7065"
         height="295.68549"
         width="85.256371"
         id="rect4124-6-5"
         style="fill:#000000;fill-opacity:1;stroke:none" />
      <path
         sodipodi:nodetypes="ssscssscssscs"
         style="fill:#000000;fill-opacity:1;stroke:none"
         d="m 2917.8563,395.12877 c 67.135,120.80453 23.601,273.14486 -97.235,340.26188 -120.8361,67.11691 -273.2161,23.5947 -340.3501,-97.20972 -17.88,-32.17311 -28.44,-67.89332 -30.889,-104.57183 -9.342,137.92083 -128.747,242.09126 -266.6621,232.71366 -137.914,-9.37771 -242.111,-128.75233 -232.731,-266.63076 9.38,-137.87843 128.786,-242.04886 266.7,-232.67126 36.206,2.4619 71.4431,12.76531 103.7251,30.22171 -118.1921,-70.88592 -156.8751,-224.529044 -85.9451,-343.145874 70.9301,-118.616826 224.6131,-157.289636 343.2611,-86.378126 118.647,70.911526 157.3301,224.554657 86.4,343.17148 -21.341,35.68961 -51.243,65.49972 -86.812,86.88252 121.024,-66.97031 273.4041,-23.4481 340.5381,97.35632 z"
         id="path3979-1-6-1-5"
         inkscape:connector-curvature="0" />
    </g>
    <text
       xml:space="preserve"
       style="font-style:normal;font-variant:normal;font-weight:bold;font-stretch:normal;line-height:0%;font-family:'Levenim MT';-inkscape-font-specification:'Sans Bold';letter-spacing:0px;word-spacing:0px;fill:#ff0000;fill-opacity:1;stroke:none"
       x="1474.8828"
       y="1260.584"
       id="text3755"
       transform="scale(0.98015674,1.020245)"><tspan
         sodipodi:role="line"
         id="tspan3757"
         x="1474.8828"
         y="1260.584"
         style="font-size:123.15098572px;line-height:1.25">8</tspan></text>
    <text
       xml:space="preserve"
       style="font-style:normal;font-variant:normal;font-weight:bold;font-stretch:normal;line-height:0%;font-family:'Levenim MT';-inkscape-font-specification:'Sans Bold';letter-spacing:0px;word-spacing:0px;fill:#ff0000;fill-opacity:1;stroke:none"
       x="-1243.3746"
       y="-1007.9561"
       id="text3755-2"
       transform="scale(-0.98015675,-1.020245)"><tspan
         sodipodi:role="line"
         id="tspan3757-4"
         x="-1243.3746"
         y="-1007.9561"
         style="font-size:123.15098572px;line-height:1.25">8</tspan></text>
    <path
       style="fill:#000000;stroke:none"
       d="m 40.276344,190.36217 c 0,-1.7661 -0.0981,-3.0417 -0.0981,-4.8079 3.66315,0 7.63226,0 11.29539,0 0,-4.1982 0,-4.4951 0,-8.6934 -7.1504,0.2296 -14.88903,0.7589 -21.58538,-2.182 -5.1833,-2.8354 -6.61352,-9.4358 -5.56848,-14.8621 0.89448,-6.1221 4.30909,-11.5588 8.76363,-15.746 5.79668,-6.18 13.18936,-10.3519 20.90744,-13.7086 7.87828,3.4135 15.43395,7.7219 21.30414,14.0648 5.28744,4.9526 8.81034,11.9522 8.70211,19.2809 0.1147,5.2898 -3.1728,10.8797 -8.59535,12.034 -6.06625,1.6744 -12.20599,1.3773 -18.43338,1.119 0,4.1983 0,4.4952 0,8.6934 3.66313,0 7.02035,0 10.68351,0 0,1.7662 0.0981,3.0418 0.0981,4.8079 -8.38791,-0.059 -18.41388,-0.059 -27.47365,0 z"
       id="path2985-3-11"
       inkscape:connector-curvature="0"
       sodipodi:nodetypes="cccccccccccccccc" />
    <text
       xml:space="preserve"
       style="font-style:normal;font-variant:normal;font-weight:bold;font-stretch:normal;line-height:0%;font-family:'Levenim MT';-inkscape-font-specification:'Sans Bold';letter-spacing:0px;word-spacing:0px;fill:#000000;fill-opacity:1;stroke:none"
       x="-948.70825"
       y="1253.0483"
       id="text3755-8"
       transform="scale(0.99241841,1.0076395)"><tspan
         sodipodi:role="line"
         id="tspan3757-92"
         x="-948.70825"
         y="1253.0483"
         style="font-size:124.69158936px;line-height:1.25">9</tspan></text>
    <path
       style="fill:#000000;stroke:none"
       d="m 676.27626,858.36217 c 0,1.7661 -0.098,3.0417 -0.098,4.8079 3.6631,0 7.6322,0 11.2954,0 0,4.1982 0,4.4951 0,8.6934 -7.1504,-0.2296 -14.8891,-0.7589 -21.5854,2.182 -5.1833,2.8354 -6.6135,9.4358 -5.5685,14.8621 0.8945,6.1221 4.3091,11.5588 8.7636,15.746 5.7967,6.18 13.1894,10.3519 20.9075,13.7086 7.8783,-3.4135 15.4339,-7.7219 21.3041,-14.0648 5.2875,-4.9526 8.8104,-11.9523 8.7021,-19.2809 0.1147,-5.2898 -3.1728,-10.8797 -8.5953,-12.034 -6.0663,-1.6744 -12.206,-1.3773 -18.4334,-1.119 0,-4.1983 0,-4.4952 0,-8.6934 3.6631,0 7.0204,0 10.6835,0 0,-1.7662 0.098,-3.0418 0.098,-4.8079 -8.388,0.059 -18.4139,0.059 -27.4737,0 z"
       id="path2985-3-11-7"
       inkscape:connector-curvature="0"
       sodipodi:nodetypes="cccccccccccccccc" />
    <text
       xml:space="preserve"
       style="font-style:normal;font-variant:normal;font-weight:bold;font-stretch:normal;line-height:0%;font-family:'Levenim MT';-inkscape-font-specification:'Sans Bold';letter-spacing:0px;word-spacing:0px;fill:#000000;fill-opacity:1;stroke:none"
       x="1007.0867"
       y="-1230.1904"
       id="text3755-2-7"
       transform="scale(-0.99241841,-1.0076395)"><tspan
         sodipodi:role="line"
         id="tspan3757-4-9"
         x="1007.0867"
         y="-1230.1904"
         style="font-size:124.69158936px;line-height:1.25">9</tspan></text>
    <path
       style="fill:#000000;stroke:none"
       d="m 330.8291,614.36217 c 0,-5.2985 -0.29436,-9.1252 -0.29436,-14.4237 10.98947,0 22.89677,0 33.88617,0 0,-12.5947 0,-13.4855 0,-26.0803 -21.4512,0.6889 -44.66709,2.2768 -64.75613,-6.5458 -15.54991,-8.5063 -19.84058,-28.3076 -16.70545,-44.5865 2.68345,-18.3662 12.92727,-34.6763 26.2909,-47.238 17.39004,-18.5399 39.56808,-31.0555 62.7223,-41.1257 23.63484,10.2405 46.30185,23.1657 63.91243,42.1944 15.86229,14.8577 26.43103,35.8567 26.10634,57.8426 0.34404,15.8694 -9.51844,32.6391 -25.78606,36.102 -18.19875,5.0232 -36.61797,4.132 -55.30013,3.357 0,12.5948 0,13.4856 0,26.0803 10.98939,0 21.06104,0 32.05051,0 0,5.2985 0.29443,9.1252 0.29443,14.4237 -25.16374,-0.1766 -55.24163,-0.1766 -82.42095,0 z"
       id="path2985-3-3-5-4-3"
       inkscape:connector-curvature="0"
       sodipodi:nodetypes="cccccccccccccccc" />
    <text
       xml:space="preserve"
       style="font-style:normal;font-variant:normal;font-weight:bold;font-stretch:normal;line-height:0%;font-family:'Levenim MT';-inkscape-font-specification:'Sans Bold';letter-spacing:0px;word-spacing:0px;fill:#000000;fill-opacity:1;stroke:none"
       x="26.355282"
       y="91.811264"
       id="text3755-0"
       transform="scale(0.8319089,1.2020547)"><tspan
         sodipodi:role="line"
         id="tspan3757-9"
         x="26.355282"
         y="91.811264"
         style="font-size:104.24028015px;line-height:1.25">A</tspan></text>
    <text
       xml:space="preserve"
       style="font-style:normal;font-variant:normal;font-weight:bold;font-stretch:normal;line-height:0%;font-family:'Levenim MT';-inkscape-font-specification:'Sans Bold';letter-spacing:0px;word-spacing:0px;fill:#000000;fill-opacity:1;stroke:none"
       x="-867.97333"
       y="-780.6319"
       id="text3755-2-2"
       transform="scale(-0.83190896,-1.2020546)"><tspan
         sodipodi:role="line"
         id="tspan3757-4-4"
         x="-867.97333"
         y="-780.6319"
         style="font-size:104.24028015px;line-height:1.25">A</tspan></text>
  </g>
</svg>
