<?xml version="1.0" encoding="UTF-8" standalone="no"?>
<svg
   xmlns:dc="http://purl.org/dc/elements/1.1/"
   xmlns:cc="http://creativecommons.org/ns#"
   xmlns:rdf="http://www.w3.org/1999/02/22-rdf-syntax-ns#"
   xmlns:svg="http://www.w3.org/2000/svg"
   xmlns="http://www.w3.org/2000/svg"
   xmlns:sodipodi="http://sodipodi.sourceforge.net/DTD/sodipodi-0.dtd"
   xmlns:inkscape="http://www.inkscape.org/namespaces/inkscape"
   inkscape:export-ydpi="96"
   inkscape:export-xdpi="96"
   inkscape:export-filename="E:\DAN\OneDrive\projects\Playing_Cards\backs\png-096-dpi\blue.png"
   version="1.0"
   inkscape:output_extension="org.inkscape.output.svg.inkscape"
   sodipodi:docname="blue.svg"
   inkscape:version="1.0 (4035a4fb49, 2020-05-01)"
   sodipodi:version="0.32"
   id="svg2"
   xml:space="preserve"
   viewBox="0 0 187.18163 266.90807"
   height="333"
   width="234"><title
   id="title2207">Blue Card Back</title><metadata
   id="metadata448"><rdf:RDF><cc:Work
       rdf:about=""><dc:format>image/svg+xml</dc:format><dc:type
         rdf:resource="http://purl.org/dc/dcmitype/StillImage" /><dc:title>Blue Card Back</dc:title><cc:license
         rdf:resource="http://creativecommons.org/publicdomain/zero/1.0/" /><dc:date>2020-05-08</dc:date><dc:creator><cc:Agent><dc:title>Daniel S. Fowler</dc:title></cc:Agent></dc:creator><dc:rights><cc:Agent><dc:title>Public Domain</dc:title></cc:Agent></dc:rights><dc:publisher><cc:Agent><dc:title>https://tekeye.uk</dc:title></cc:Agent></dc:publisher><dc:language>en-GB</dc:language><dc:subject><rdf:Bag><rdf:li>blue; back; playing; card;</rdf:li></rdf:Bag></dc:subject></cc:Work><cc:License
       rdf:about="http://creativecommons.org/publicdomain/zero/1.0/"><cc:permits
         rdf:resource="http://creativecommons.org/ns#Reproduction" /><cc:permits
         rdf:resource="http://creativecommons.org/ns#Distribution" /><cc:permits
         rdf:resource="http://creativecommons.org/ns#DerivativeWorks" /></cc:License></rdf:RDF></metadata><defs
   id="defs446" /><sodipodi:namedview
   inkscape:window-maximized="0"
   inkscape:guide-bbox="true"
   showguides="true"
   showborder="false"
   fit-margin-bottom="0"
   fit-margin-right="0"
   fit-margin-left="0"
   fit-margin-top="0"
   showgrid="false"
   inkscape:document-rotation="0"
   inkscape:current-layer="svg2"
   inkscape:window-y="13"
   inkscape:window-x="29"
   inkscape:cy="180.62968"
   inkscape:cx="160.55725"
   inkscape:zoom="1.7562495"
   height="303px"
   width="209px"
   inkscape:showpageshadow="false"
   id="base"
   pagecolor="#ffffff"
   bordercolor="#666666"
   borderopacity="1.0"
   objecttolerance="10.0"
   gridtolerance="10.0"
   guidetolerance="10.0"
   inkscape:pageopacity="0.0"
   inkscape:pageshadow="2"
   inkscape:window-width="1620"
   inkscape:window-height="1003" />
	<g
   id="g2435"><rect
     rx="7.1489577"
     ry="7.1702428"
     y="0.3029395"
     x="0.11524342"
     height="266.30219"
     width="186.95114"
     id="rect4266"
     style="fill:#ffffff;fill-opacity:1;stroke:#808080;stroke-width:0.605879;stroke-linecap:butt;stroke-linejoin:miter;stroke-miterlimit:4;stroke-dasharray:none;stroke-opacity:1" /><g
     id="Layer_x0020_1"
     style="fill:none;fill-rule:nonzero;stroke:#17067a;stroke-width:1.29911;stroke-linecap:round;stroke-linejoin:round;stroke-miterlimit:4"
     transform="matrix(1.0068394,0,0,1.0198296,9.4273008,9.6149635)">
		<path
   style="fill:#ffffff;stroke:#000000;stroke-width:0.493431;stroke-linecap:butt;stroke-linejoin:miter"
   d="m 166.93359,235.74316 c 0,3.77442 -3.08593,6.86914 -6.87011,6.86914 H 7.215332 c -3.7749023,0 -6.8608398,-3.09472 -6.8608398,-6.86914 V 7.3178711 c 0,-3.7797852 3.0859375,-6.8701172 6.8608398,-6.8701172 H 160.06348 c 3.78418,0 6.87011,3.090332 6.87011,6.8701172 z"
   id="path5" />
		<path
   style="fill:#ffffff;fill-rule:evenodd;stroke:none;stroke-width:1.29911"
   d="m 7.6469727,1.8691406 c -3.2133789,0 -5.8012695,2.5161133 -5.8012695,5.6430664 V 235.43555 c 0,3.12597 2.5878906,5.6416 5.8012695,5.6416 H 159.7207 c 3.21485,0 5.80078,-2.51563 5.80078,-5.6416 V 7.512207 c 0,-3.1269531 -2.58593,-5.6430664 -5.80078,-5.6430664 z"
   id="path7" />
		<path
   style="stroke-width:2.81157;stroke-linecap:butt;stroke-linejoin:miter;stroke-miterlimit:10"
   d="m 7.6469727,1.8691406 c -3.2133789,0 -5.8012695,2.5161133 -5.8012695,5.6430664 V 235.43555 c 0,3.12597 2.5878906,5.6416 5.8012695,5.6416 H 159.7207 c 3.21485,0 5.80078,-2.51563 5.80078,-5.6416 V 7.512207 c 0,-3.1269531 -2.58593,-5.6430664 -5.80078,-5.6430664 z"
   id="path9" />
		<path
   style="fill:#ffffff;fill-rule:evenodd;stroke:none;stroke-width:1.29911"
   d="m 9.2890625,7.4052734 c -0.8095703,0 -1.4604492,0.6337891 -1.4604492,1.4204102 V 234.12207 c 0,0.78613 0.6508789,1.41992 1.4604492,1.41992 H 157.70898 c 0.80957,0 1.46192,-0.63379 1.46192,-1.41992 V 8.8256836 c 0,-0.7866211 -0.65235,-1.4204102 -1.46192,-1.4204102 z"
   id="path11" />
		<path
   style="stroke-width:2.64025;stroke-linecap:butt;stroke-linejoin:miter;stroke-miterlimit:10"
   d="m 9.2890625,7.4052734 c -0.8095703,0 -1.4604492,0.6337891 -1.4604492,1.4204102 V 234.12207 c 0,0.78613 0.6508789,1.41992 1.4604492,1.41992 H 157.70898 c 0.80957,0 1.46192,-0.63379 1.46192,-1.41992 V 8.8256836 c 0,-0.7866211 -0.65235,-1.4204102 -1.46192,-1.4204102 z"
   id="path13" />
		<path
   style="fill:#313390;fill-rule:evenodd;stroke:none;stroke-width:1.29911"
   d="m 38.657227,37.113769 c -0.390137,0 -0.704102,0.304688 -0.704102,0.685059 V 205.86816 c 0,0.38086 0.313965,0.68555 0.704102,0.68555 H 126.8584 c 0.3916,0 0.7041,-0.30469 0.7041,-0.68555 V 37.798828 c 0,-0.380371 -0.3125,-0.685058 -0.7041,-0.685058 H 38.657227 Z"
   id="path15" />
		<path
   style="stroke-width:1.61932;stroke-linecap:butt;stroke-linejoin:miter;stroke-miterlimit:10"
   d="m 38.657227,37.113769 c -0.390137,0 -0.704102,0.304688 -0.704102,0.685059 V 205.86816 c 0,0.38086 0.313965,0.68555 0.704102,0.68555 H 126.8584 c 0.3916,0 0.7041,-0.30469 0.7041,-0.68555 V 37.798828 c 0,-0.380371 -0.3125,-0.685058 -0.7041,-0.685058 H 38.657227 Z"
   id="path17" />
		<path
   style="fill:#ffffff;fill-rule:evenodd;stroke:none;stroke-width:1.29911"
   d="m 52.620117,43.074219 c -4.619629,0 -8.339844,3.618652 -8.339844,8.112304 V 191.76074 c 0,4.49414 3.720215,8.11231 8.339844,8.11231 h 59.907223 c 4.62012,0 8.33985,-3.61817 8.33985,-8.11231 V 51.186523 c 0,-4.493652 -3.71973,-8.112304 -8.33985,-8.112304 z"
   id="path19" />
		<path
   style="stroke-width:2.03631;stroke-linecap:butt;stroke-miterlimit:10"
   d="m 52.620117,43.074219 c -4.619629,0 -8.339844,3.618652 -8.339844,8.112304 V 191.76074 c 0,4.49414 3.720215,8.11231 8.339844,8.11231 h 59.907223 c 4.62012,0 8.33985,-3.61817 8.33985,-8.11231 V 51.186523 c 0,-4.493652 -3.71973,-8.112304 -8.33985,-8.112304 z"
   id="path21" />
		<path
   style="fill:#313390;fill-rule:evenodd;stroke:none;stroke-width:1.29911"
   d="m 53.546875,49.536621 c -1.553711,0 -2.805176,1.217285 -2.805176,2.729004 V 190.68066 c 0,1.5127 1.251465,2.7295 2.805176,2.7295 h 57.681645 c 1.55566,0 2.80859,-1.2168 2.80859,-2.7295 V 52.265625 c 0,-1.511719 -1.25293,-2.729004 -2.80859,-2.729004 z"
   id="path23" />
		<path
   style="stroke-width:1.77323;stroke-linecap:butt;stroke-miterlimit:10"
   d="m 53.546875,49.536621 c -1.553711,0 -2.805176,1.217285 -2.805176,2.729004 V 190.68066 c 0,1.5127 1.251465,2.7295 2.805176,2.7295 h 57.681645 c 1.55566,0 2.80859,-1.2168 2.80859,-2.7295 V 52.265625 c 0,-1.511719 -1.25293,-2.729004 -2.80859,-2.729004 z"
   id="path25" />
		<path
   style="fill:#17067a;fill-rule:evenodd;stroke:none;stroke-width:1.29911"
   d="M 9.4145508,9.0317383 H 16.077149 L 9.4785157,15.43457 9.4145509,9.0317383 Z"
   id="path27" />
		<path
   style="stroke-width:0.851983;stroke-linecap:butt;stroke-linejoin:miter;stroke-miterlimit:10"
   d="M 9.4145508,9.0317383 H 16.077149 L 9.4785157,15.43457 9.4145509,9.0317383 Z"
   id="path29" />
		<path
   style="fill:#17067a;fill-rule:evenodd;stroke:none;stroke-width:1.29911"
   d="m 157.48242,9.1147461 h -6.66211 l 6.59766,6.4028319 0.0644,-6.4028319 z"
   id="path31" />
		<path
   style="stroke-width:0.851983;stroke-linecap:butt;stroke-linejoin:miter;stroke-miterlimit:10"
   d="m 157.48242,9.1147461 h -6.66211 l 6.59766,6.4028319 0.0644,-6.4028319 z"
   id="path33" />
		<path
   style="fill:#17067a;fill-rule:evenodd;stroke:none;stroke-width:1.29911"
   d="m 157.60254,234.11816 h -6.66309 l 6.59961,-6.40136 0.0635,6.40136 z"
   id="path35" />
		<path
   style="stroke-width:0.851983;stroke-linecap:butt;stroke-linejoin:miter;stroke-miterlimit:10"
   d="m 157.60254,234.11816 h -6.66309 l 6.59961,-6.40136 0.0635,6.40136 z"
   id="path37" />
		<path
   style="fill:#17067a;fill-rule:evenodd;stroke:none;stroke-width:1.29911"
   d="M 9.4091797,234.08496 H 16.071777 L 9.4741211,227.68262 Z"
   id="path39" />
		<path
   style="stroke-width:0.851983;stroke-linecap:butt;stroke-linejoin:miter;stroke-miterlimit:10"
   d="M 9.4091797,234.08496 H 16.071777 L 9.4741211,227.68262 Z"
   id="path41" />
		<path
   style="fill:#313390;fill-rule:evenodd;stroke:none;stroke-width:1.29911"
   d="m 11.96582,130.63184 v 6.13379 L 34.394043,125.2959 v -6.28467 z"
   id="path43" />
		<path
   style="stroke-width:1.29904;stroke-miterlimit:10"
   d="m 11.96582,130.63184 v 6.13379 L 34.394043,125.2959 v -6.28467 z"
   id="path45" />
		<path
   style="fill:#313390;fill-rule:evenodd;stroke:none;stroke-width:1.29911"
   d="m 12.080078,142.23145 v 6.13378 l 22.427735,-11.47168 v -6.2832 z"
   id="path47" />
		<path
   style="stroke-width:1.29904;stroke-miterlimit:10"
   d="m 12.080078,142.23145 v 6.13378 l 22.427735,-11.47168 v -6.2832 z"
   id="path49" />
		<path
   style="fill:#ffffff;fill-rule:evenodd;stroke:none;stroke-width:1.29911"
   d="m 11.854492,136.7959 v -6.13379 l 22.427246,11.4707 v 6.28418 z"
   id="path51" />
		<path
   style="stroke-width:1.29904;stroke-miterlimit:10"
   d="m 11.854492,136.7959 v -6.13379 l 22.427246,11.4707 v 6.28418 z"
   id="path53" />
		<path
   style="fill:#313390;fill-rule:evenodd;stroke:none;stroke-width:1.29911"
   d="m 12.129883,118.87305 v 6.13379 l 22.427734,-11.47217 v -6.28272 z"
   id="path55" />
		<path
   style="stroke-width:1.29904;stroke-miterlimit:10"
   d="m 12.129883,118.87305 v 6.13379 l 22.427734,-11.47217 v -6.28272 z"
   id="path57" />
		<path
   style="fill:#ffffff;fill-rule:evenodd;stroke:none;stroke-width:1.29911"
   d="m 12.022949,125.25879 v -6.13281 l 22.428711,11.4707 v 6.28418 z"
   id="path59" />
		<path
   style="stroke-width:1.29904;stroke-miterlimit:10"
   d="m 12.022949,125.25879 v -6.13281 l 22.428711,11.4707 v 6.28418 z"
   id="path61" />
		<path
   style="fill:#313390;fill-rule:evenodd;stroke:none;stroke-width:1.29911"
   d="m 12.016113,107.27344 v 6.13379 l 22.427735,-11.47022 v -6.284666 z"
   id="path63" />
		<path
   style="stroke-width:1.29904;stroke-miterlimit:10"
   d="m 12.016113,107.27344 v 6.13379 l 22.427735,-11.47022 v -6.284666 z"
   id="path65" />
		<path
   style="fill:#ffffff;fill-rule:evenodd;stroke:none;stroke-width:1.29911"
   d="m 11.903809,113.43701 v -6.1333 l 22.428222,11.47168 v 6.28223 z"
   id="path67" />
		<path
   style="stroke-width:1.29904;stroke-miterlimit:10"
   d="m 11.903809,113.43701 v -6.1333 l 22.428222,11.47168 v 6.28223 z"
   id="path69" />
		<path
   style="fill:#ffffff;fill-rule:evenodd;stroke:none;stroke-width:1.29911"
   d="m 12.073242,101.90039 v -6.1333 l 22.427735,11.47168 v 6.28271 z"
   id="path71" />
		<path
   style="stroke-width:1.29904;stroke-miterlimit:10"
   d="m 12.073242,101.90039 v -6.1333 l 22.427735,11.47168 v 6.28271 z"
   id="path73" />
		<path
   style="fill:#313390;fill-rule:evenodd;stroke:none;stroke-width:1.29911"
   d="m 12.11084,153.93652 v 6.13282 l 22.427734,-11.46973 v -6.28418 z"
   id="path75" />
		<path
   style="stroke-width:1.29904;stroke-miterlimit:10"
   d="m 12.11084,153.93652 v 6.13282 l 22.427734,-11.46973 v -6.28418 z"
   id="path77" />
		<path
   style="fill:#ffffff;fill-rule:evenodd;stroke:none;stroke-width:1.29911"
   d="m 11.884766,148.5 v -6.13281 l 22.427734,11.4707 v 6.28516 z"
   id="path79" />
		<path
   style="stroke-width:1.29904;stroke-miterlimit:10"
   d="m 11.884766,148.5 v -6.13281 l 22.427734,11.4707 v 6.28516 z"
   id="path81" />
		<path
   style="fill:#313390;fill-rule:evenodd;stroke:none;stroke-width:1.29911"
   d="m 11.883301,72.185059 v 6.1333 L 34.311035,66.847168 v -6.283203 z"
   id="path83" />
		<path
   style="stroke-width:1.29904;stroke-miterlimit:10"
   d="m 11.883301,72.185059 v 6.1333 L 34.311035,66.847168 v -6.283203 z"
   id="path85" />
		<path
   style="fill:#313390;fill-rule:evenodd;stroke:none;stroke-width:1.29911"
   d="m 11.99707,83.783203 v 6.135254 l 22.428711,-11.47168 v -6.284668 z"
   id="path87" />
		<path
   style="stroke-width:1.29904;stroke-miterlimit:10"
   d="m 11.99707,83.783203 v 6.135254 l 22.428711,-11.47168 v -6.284668 z"
   id="path89" />
		<path
   style="fill:#ffffff;fill-rule:evenodd;stroke:none;stroke-width:1.29911"
   d="m 11.771484,78.348633 v -6.133789 l 22.428711,11.470214 v 6.284668 z"
   id="path91" />
		<path
   style="stroke-width:1.29904;stroke-miterlimit:10"
   d="m 11.771484,78.348633 v -6.133789 l 22.428711,11.470214 v 6.284668 z"
   id="path93" />
		<path
   style="fill:#313390;fill-rule:evenodd;stroke:none;stroke-width:1.29911"
   d="M 12.047852,60.424316 V 66.55957 L 34.475586,55.087402 v -6.284179 z"
   id="path95" />
		<path
   style="stroke-width:1.29904;stroke-miterlimit:10"
   d="M 12.047852,60.424316 V 66.55957 L 34.475586,55.087402 v -6.284179 z"
   id="path97" />
		<path
   style="fill:#ffffff;fill-rule:evenodd;stroke:none;stroke-width:1.29911"
   d="m 11.939941,66.812012 v -6.133301 l 22.428711,11.470215 v 6.284179 z"
   id="path99" />
		<path
   style="stroke-width:1.29904;stroke-miterlimit:10"
   d="m 11.939941,66.812012 v -6.133301 l 22.428711,11.470215 v 6.284179 z"
   id="path101" />
		<path
   style="fill:#313390;fill-rule:evenodd;stroke:none;stroke-width:1.29911"
   d="m 11.933106,48.826172 v 6.133301 L 34.360352,43.488281 v -6.283203 z"
   id="path103" />
		<path
   style="stroke-width:1.29904;stroke-miterlimit:10"
   d="m 11.933106,48.826172 v 6.133301 L 34.360352,43.488281 v -6.283203 z"
   id="path105" />
		<path
   style="fill:#ffffff;fill-rule:evenodd;stroke:none;stroke-width:1.29911"
   d="M 11.821777,54.989746 V 48.856445 L 34.25,60.326172 v 6.284668 z"
   id="path107" />
		<path
   style="stroke-width:1.29904;stroke-miterlimit:10"
   d="M 11.821777,54.989746 V 48.856445 L 34.25,60.326172 v 6.284668 z"
   id="path109" />
		<path
   style="fill:#ffffff;fill-rule:evenodd;stroke:none;stroke-width:1.29911"
   d="m 11.989746,43.453125 v -6.132812 l 22.428711,11.469726 v 6.28418 z"
   id="path111" />
		<path
   style="stroke-width:1.29904;stroke-miterlimit:10"
   d="m 11.989746,43.453125 v -6.132812 l 22.428711,11.469726 v 6.28418 z"
   id="path113" />
		<path
   style="fill:#313390;fill-rule:evenodd;stroke:none;stroke-width:1.29911"
   d="m 12.028809,95.489258 v 6.133302 L 34.457031,90.151367 v -6.283203 z"
   id="path115" />
		<path
   style="stroke-width:1.29904;stroke-miterlimit:10"
   d="m 12.028809,95.489258 v 6.133302 L 34.457031,90.151367 v -6.283203 z"
   id="path117" />
		<path
   style="fill:#ffffff;fill-rule:evenodd;stroke:none;stroke-width:1.29911"
   d="m 11.802734,90.053223 v -6.133789 l 22.427735,11.471679 v 6.283207 z"
   id="path119" />
		<path
   style="stroke-width:1.29904;stroke-miterlimit:10"
   d="m 11.802734,90.053223 v -6.133789 l 22.427735,11.471679 v 6.283207 z"
   id="path121" />
		<path
   style="fill:#313390;fill-rule:evenodd;stroke:none;stroke-width:1.29911"
   d="m 11.96582,188.91895 v 6.13476 l 22.428223,-11.47266 v -6.28515 z"
   id="path123" />
		<path
   style="stroke-width:1.29904;stroke-miterlimit:10"
   d="m 11.96582,188.91895 v 6.13476 l 22.428223,-11.47266 v -6.28515 z"
   id="path125" />
		<path
   style="fill:#313390;fill-rule:evenodd;stroke:none;stroke-width:1.29911"
   d="m 12.080078,200.51855 v 6.13282 l 22.427735,-11.47071 v -6.2832 z"
   id="path127" />
		<path
   style="stroke-width:1.29904;stroke-miterlimit:10"
   d="m 12.080078,200.51855 v 6.13282 l 22.427735,-11.47071 v -6.2832 z"
   id="path129" />
		<path
   style="fill:#ffffff;fill-rule:evenodd;stroke:none;stroke-width:1.29911"
   d="m 11.854492,195.08398 v -6.13574 l 22.427246,11.47168 v 6.28516 z"
   id="path131" />
		<path
   style="stroke-width:1.29904;stroke-miterlimit:10"
   d="m 11.854492,195.08398 v -6.13574 l 22.427246,11.47168 v 6.28516 z"
   id="path133" />
		<path
   style="fill:#313390;fill-rule:evenodd;stroke:none;stroke-width:1.29911"
   d="m 12.129883,177.15918 v 6.13281 l 22.427734,-11.4707 v -6.2832 z"
   id="path135" />
		<path
   style="stroke-width:1.29904;stroke-miterlimit:10"
   d="m 12.129883,177.15918 v 6.13281 l 22.427734,-11.4707 v -6.2832 z"
   id="path137" />
		<path
   style="fill:#ffffff;fill-rule:evenodd;stroke:none;stroke-width:1.29911"
   d="m 12.022949,183.5459 v -6.13477 l 22.428711,11.47266 v 6.28418 z"
   id="path139" />
		<path
   style="stroke-width:1.29904;stroke-miterlimit:10"
   d="m 12.022949,183.5459 v -6.13477 l 22.428711,11.47266 v 6.28418 z"
   id="path141" />
		<path
   style="fill:#313390;fill-rule:evenodd;stroke:none;stroke-width:1.29911"
   d="m 12.016113,165.56152 v 6.13282 l 22.427735,-11.47266 v -6.28125 z"
   id="path143" />
		<path
   style="stroke-width:1.29904;stroke-miterlimit:10"
   d="m 12.016113,165.56152 v 6.13282 l 22.427735,-11.47266 v -6.28125 z"
   id="path145" />
		<path
   style="fill:#ffffff;fill-rule:evenodd;stroke:none;stroke-width:1.29911"
   d="m 11.903809,171.72461 v -6.13379 l 22.428222,11.4707 v 6.28321 z"
   id="path147" />
		<path
   style="stroke-width:1.29904;stroke-miterlimit:10"
   d="m 11.903809,171.72461 v -6.13379 l 22.428222,11.4707 v 6.28321 z"
   id="path149" />
		<path
   style="fill:#ffffff;fill-rule:evenodd;stroke:none;stroke-width:1.29911"
   d="m 12.073242,160.1875 v -6.13379 l 22.427735,11.4707 v 6.28418 z"
   id="path151" />
		<path
   style="stroke-width:1.29904;stroke-miterlimit:10"
   d="m 12.073242,160.1875 v -6.13379 l 22.427735,11.4707 v 6.28418 z"
   id="path153" />
		<path
   style="fill:#313390;fill-rule:evenodd;stroke:none;stroke-width:1.29911"
   d="m 131.93848,113.32178 v -6.13623 l 22.42675,11.47802 v 6.28663 z"
   id="path155" />
		<path
   style="stroke-width:1.29904;stroke-miterlimit:10"
   d="m 131.93848,113.32178 v -6.13623 l 22.42675,11.47802 v 6.28663 z"
   id="path157" />
		<path
   style="fill:#313390;fill-rule:evenodd;stroke:none;stroke-width:1.29911"
   d="m 132.05078,101.71582 v -6.136718 l 22.42969,11.478518 v 6.28759 z"
   id="path159" />
		<path
   style="stroke-width:1.29904;stroke-miterlimit:10"
   d="m 132.05078,101.71582 v -6.136718 l 22.42969,11.478518 v 6.28759 z"
   id="path161" />
		<path
   style="fill:#ffffff;fill-rule:evenodd;stroke:none;stroke-width:1.29911"
   d="m 131.82617,107.15576 v 6.13623 l 22.42676,-11.47656 v -6.288086 z"
   id="path163" />
		<path
   style="stroke-width:1.29904;stroke-miterlimit:10"
   d="m 131.82617,107.15576 v 6.13623 l 22.42676,-11.47656 v -6.288086 z"
   id="path165" />
		<path
   style="fill:#313390;fill-rule:evenodd;stroke:none;stroke-width:1.29911"
   d="m 132.09961,125.08887 v -6.1377 l 22.43066,11.47754 v 6.28906 z"
   id="path167" />
		<path
   style="stroke-width:1.29904;stroke-miterlimit:10"
   d="m 132.09961,125.08887 v -6.1377 l 22.43066,11.47754 v 6.28906 z"
   id="path169" />
		<path
   style="fill:#ffffff;fill-rule:evenodd;stroke:none;stroke-width:1.29911"
   d="m 131.99414,118.69873 v 6.13623 l 22.42774,-11.47656 v -6.2876 z"
   id="path171" />
		<path
   style="stroke-width:1.29904;stroke-miterlimit:10"
   d="m 131.99414,118.69873 v 6.13623 l 22.42774,-11.47656 v -6.2876 z"
   id="path173" />
		<path
   style="fill:#313390;fill-rule:evenodd;stroke:none;stroke-width:1.29911"
   d="m 131.98828,136.69434 v -6.13672 l 22.42774,11.47851 v 6.28711 z"
   id="path175" />
		<path
   style="stroke-width:1.29904;stroke-miterlimit:10"
   d="m 131.98828,136.69434 v -6.13672 l 22.42774,11.47851 v 6.28711 z"
   id="path177" />
		<path
   style="fill:#ffffff;fill-rule:evenodd;stroke:none;stroke-width:1.29911"
   d="m 131.875,130.52832 v 6.13574 l 22.42969,-11.47558 v -6.28858 z"
   id="path179" />
		<path
   style="stroke-width:1.29904;stroke-miterlimit:10"
   d="m 131.875,130.52832 v 6.13574 l 22.42969,-11.47558 v -6.28858 z"
   id="path181" />
		<path
   style="fill:#ffffff;fill-rule:evenodd;stroke:none;stroke-width:1.29911"
   d="m 132.04492,142.07129 v 6.13769 l 22.42774,-11.47753 v -6.28907 z"
   id="path183" />
		<path
   style="stroke-width:1.29904;stroke-miterlimit:10"
   d="m 132.04492,142.07129 v 6.13769 l 22.42774,-11.47753 v -6.28907 z"
   id="path185" />
		<path
   style="fill:#313390;fill-rule:evenodd;stroke:none;stroke-width:1.29911"
   d="m 132.08398,90.004883 v -6.138184 l 22.42774,11.478028 v 6.287593 z"
   id="path187" />
		<path
   style="stroke-width:1.29904;stroke-miterlimit:10"
   d="m 132.08398,90.004883 v -6.138184 l 22.42774,11.478028 v 6.287593 z"
   id="path189" />
		<path
   style="fill:#ffffff;fill-rule:evenodd;stroke:none;stroke-width:1.29911"
   d="m 131.85547,95.442871 v 6.138179 l 22.42969,-11.478511 v -6.287598 z"
   id="path191" />
		<path
   style="stroke-width:1.29904;stroke-miterlimit:10"
   d="m 131.85547,95.442871 v 6.138179 l 22.42969,-11.478511 v -6.287598 z"
   id="path193" />
		<path
   style="fill:#313390;fill-rule:evenodd;stroke:none;stroke-width:1.29911"
   d="m 131.85352,171.80566 v -6.13867 l 22.42968,11.47852 v 6.28711 z"
   id="path195" />
		<path
   style="stroke-width:1.29904;stroke-miterlimit:10"
   d="m 131.85352,171.80566 v -6.13867 l 22.42968,11.47852 v 6.28711 z"
   id="path197" />
		<path
   style="fill:#313390;fill-rule:evenodd;stroke:none;stroke-width:1.29911"
   d="m 131.96875,160.2002 v -6.13868 l 22.42773,11.47754 v 6.28809 z"
   id="path199" />
		<path
   style="stroke-width:1.29904;stroke-miterlimit:10"
   d="m 131.96875,160.2002 v -6.13868 l 22.42773,11.47754 v 6.28809 z"
   id="path201" />
		<path
   style="fill:#ffffff;fill-rule:evenodd;stroke:none;stroke-width:1.29911"
   d="m 131.74414,165.6377 v 6.13769 l 22.42774,-11.47754 v -6.28808 z"
   id="path203" />
		<path
   style="stroke-width:1.29904;stroke-miterlimit:10"
   d="m 131.74414,165.6377 v 6.13769 l 22.42774,-11.47754 v -6.28808 z"
   id="path205" />
		<path
   style="fill:#313390;fill-rule:evenodd;stroke:none;stroke-width:1.29911"
   d="m 132.01758,183.57129 v -6.13672 l 22.42871,11.47656 v 6.28907 z"
   id="path207" />
		<path
   style="stroke-width:1.29904;stroke-miterlimit:10"
   d="m 132.01758,183.57129 v -6.13672 l 22.42871,11.47656 v 6.28907 z"
   id="path209" />
		<path
   style="fill:#ffffff;fill-rule:evenodd;stroke:none;stroke-width:1.29911"
   d="m 131.91211,177.18066 v 6.13672 l 22.42773,-11.47656 v -6.28906 z"
   id="path211" />
		<path
   style="stroke-width:1.29904;stroke-miterlimit:10"
   d="m 131.91211,177.18066 v 6.13672 l 22.42773,-11.47656 v -6.28906 z"
   id="path213" />
		<path
   style="fill:#313390;fill-rule:evenodd;stroke:none;stroke-width:1.29911"
   d="m 131.9043,195.17871 v -6.13672 l 22.42871,11.47656 v 6.28711 z"
   id="path215" />
		<path
   style="stroke-width:1.29904;stroke-miterlimit:10"
   d="m 131.9043,195.17871 v -6.13672 l 22.42871,11.47656 v 6.28711 z"
   id="path217" />
		<path
   style="fill:#ffffff;fill-rule:evenodd;stroke:none;stroke-width:1.29911"
   d="m 131.79297,189.01172 v 6.13574 l 22.42773,-11.47851 v -6.28711 z"
   id="path219" />
		<path
   style="stroke-width:1.29904;stroke-miterlimit:10"
   d="m 131.79297,189.01172 v 6.13574 l 22.42773,-11.47851 v -6.28711 z"
   id="path221" />
		<path
   style="fill:#ffffff;fill-rule:evenodd;stroke:none;stroke-width:1.29911"
   d="m 131.96191,200.55566 v 6.13672 l 22.42774,-11.47754 v -6.28808 z"
   id="path223" />
		<path
   style="stroke-width:1.29904;stroke-miterlimit:10"
   d="m 131.96191,200.55566 v 6.13672 l 22.42774,-11.47754 v -6.28808 z"
   id="path225" />
		<path
   style="fill:#313390;fill-rule:evenodd;stroke:none;stroke-width:1.29911"
   d="m 132,148.48633 v -6.13574 l 22.42773,11.47656 v 6.28711 z"
   id="path227" />
		<path
   style="stroke-width:1.29904;stroke-miterlimit:10"
   d="m 132,148.48633 v -6.13574 l 22.42773,11.47656 v 6.28711 z"
   id="path229" />
		<path
   style="fill:#ffffff;fill-rule:evenodd;stroke:none;stroke-width:1.29911"
   d="m 131.77441,153.92676 v 6.13672 l 22.42676,-11.47852 v -6.28711 z"
   id="path231" />
		<path
   style="stroke-width:1.29904;stroke-miterlimit:10"
   d="m 131.77441,153.92676 v 6.13672 l 22.42676,-11.47852 v -6.28711 z"
   id="path233" />
		<path
   style="fill:#313390;fill-rule:evenodd;stroke:none;stroke-width:1.29911"
   d="m 131.93848,55.001465 v -6.138672 l 22.42675,11.478516 v 6.287597 z"
   id="path235" />
		<path
   style="stroke-width:1.29904;stroke-miterlimit:10"
   d="m 131.93848,55.001465 v -6.138672 l 22.42675,11.478516 v 6.287597 z"
   id="path237" />
		<path
   style="fill:#313390;fill-rule:evenodd;stroke:none;stroke-width:1.29911"
   d="m 132.05078,43.395019 v -6.138183 l 22.42969,11.478027 v 6.288086 z"
   id="path239" />
		<path
   style="stroke-width:1.29904;stroke-miterlimit:10"
   d="m 132.05078,43.395019 v -6.138183 l 22.42969,11.478027 v 6.288086 z"
   id="path241" />
		<path
   style="fill:#ffffff;fill-rule:evenodd;stroke:none;stroke-width:1.29911"
   d="m 131.82617,48.833008 v 6.138183 l 22.42676,-11.478027 v -6.288086 z"
   id="path243" />
		<path
   style="stroke-width:1.29904;stroke-miterlimit:10"
   d="m 131.82617,48.833008 v 6.138183 l 22.42676,-11.478027 v -6.288086 z"
   id="path245" />
		<path
   style="fill:#313390;fill-rule:evenodd;stroke:none;stroke-width:1.29911"
   d="m 132.09961,66.76709 v -6.136231 l 22.43066,11.478028 v 6.286132 z"
   id="path247" />
		<path
   style="stroke-width:1.29904;stroke-miterlimit:10"
   d="m 132.09961,66.76709 v -6.136231 l 22.43066,11.478028 v 6.286132 z"
   id="path249" />
		<path
   style="fill:#ffffff;fill-rule:evenodd;stroke:none;stroke-width:1.29911"
   d="m 131.99414,60.37793 v 6.136719 l 22.42774,-11.478516 v -6.287598 z"
   id="path251" />
		<path
   style="stroke-width:1.29904;stroke-miterlimit:10"
   d="m 131.99414,60.37793 v 6.136719 l 22.42774,-11.478516 v -6.287598 z"
   id="path253" />
		<path
   style="fill:#313390;fill-rule:evenodd;stroke:none;stroke-width:1.29911"
   d="m 131.98828,78.373535 v -6.136719 l 22.42774,11.476563 v 6.288086 z"
   id="path255" />
		<path
   style="stroke-width:1.29904;stroke-miterlimit:10"
   d="m 131.98828,78.373535 v -6.136719 l 22.42774,11.476563 v 6.288086 z"
   id="path257" />
		<path
   style="fill:#ffffff;fill-rule:evenodd;stroke:none;stroke-width:1.29911"
   d="M 131.875,72.206543 V 78.34375 L 154.30469,66.865234 V 60.577149 Z"
   id="path259" />
		<path
   style="stroke-width:1.29904;stroke-miterlimit:10"
   d="M 131.875,72.206543 V 78.34375 L 154.30469,66.865234 V 60.577149 Z"
   id="path261" />
		<path
   style="fill:#ffffff;fill-rule:evenodd;stroke:none;stroke-width:1.29911"
   d="m 132.04492,83.75 v 6.137207 l 22.42774,-11.477051 v -6.287598 z"
   id="path263" />
		<path
   style="stroke-width:1.29904;stroke-miterlimit:10"
   d="m 132.04492,83.75 v 6.137207 l 22.42774,-11.477051 v -6.287598 z"
   id="path265" />
		<path
   style="fill:#313390;fill-rule:evenodd;stroke:none;stroke-width:1.29911"
   d="m 68.547363,11.509766 h -6.28955 l 11.764648,21.815429 h 6.445801 z"
   id="path267" />
		<path
   style="stroke-width:1.29904;stroke-miterlimit:10"
   d="m 68.547363,11.509766 h -6.28955 l 11.764648,21.815429 h 6.445801 z"
   id="path269" />
		<path
   style="fill:#313390;fill-rule:evenodd;stroke:none;stroke-width:1.29911"
   d="m 56.651856,11.621582 h -6.29004 l 11.764161,21.81543 h 6.444824 z"
   id="path271" />
		<path
   style="stroke-width:1.29904;stroke-miterlimit:10"
   d="m 56.651856,11.621582 h -6.29004 l 11.764161,21.81543 h 6.444824 z"
   id="path273" />
		<path
   style="fill:#ffffff;fill-rule:evenodd;stroke:none;stroke-width:1.29911"
   d="M 62.227051,11.401856 H 68.51709 L 56.75293,33.217285 h -6.444336 z"
   id="path275" />
		<path
   style="stroke-width:1.29904;stroke-miterlimit:10"
   d="M 62.227051,11.401856 H 68.51709 L 56.75293,33.217285 h -6.444336 z"
   id="path277" />
		<path
   style="fill:#313390;fill-rule:evenodd;stroke:none;stroke-width:1.29911"
   d="m 80.608887,11.669434 h -6.291016 l 11.76416,21.815429 h 6.445313 z"
   id="path279" />
		<path
   style="stroke-width:1.29904;stroke-miterlimit:10"
   d="m 80.608887,11.669434 h -6.291016 l 11.76416,21.815429 h 6.445313 z"
   id="path281" />
		<path
   style="fill:#ffffff;fill-rule:evenodd;stroke:none;stroke-width:1.29911"
   d="m 74.058594,11.566406 h 6.291015 l -11.76416,21.81543 h -6.445312 z"
   id="path283" />
		<path
   style="stroke-width:1.29904;stroke-miterlimit:10"
   d="m 74.058594,11.566406 h 6.291015 l -11.76416,21.81543 h -6.445312 z"
   id="path285" />
		<path
   style="fill:#313390;fill-rule:evenodd;stroke:none;stroke-width:1.29911"
   d="m 116.45996,11.659668 h -6.29004 l 11.76465,21.81543 h 6.44434 z"
   id="path287" />
		<path
   style="stroke-width:1.29904;stroke-miterlimit:10"
   d="m 116.45996,11.659668 h -6.29004 l 11.76465,21.81543 h 6.44434 z"
   id="path289" />
		<path
   style="fill:#313390;fill-rule:evenodd;stroke:none;stroke-width:1.29911"
   d="M 92.503906,11.558106 H 86.213867 L 97.978516,33.375488 H 104.4248 Z"
   id="path291" />
		<path
   style="stroke-width:1.29904;stroke-miterlimit:10"
   d="M 92.503906,11.558106 H 86.213867 L 97.978516,33.375488 H 104.4248 Z"
   id="path293" />
		<path
   style="fill:#ffffff;fill-rule:evenodd;stroke:none;stroke-width:1.29911"
   d="m 86.183594,11.449707 h 6.289062 L 80.709961,33.265625 h -6.444824 z"
   id="path295" />
		<path
   style="stroke-width:1.29904;stroke-miterlimit:10"
   d="m 86.183594,11.449707 h 6.289062 L 80.709961,33.265625 h -6.444824 z"
   id="path297" />
		<path
   style="fill:#313390;fill-rule:evenodd;stroke:none;stroke-width:1.29911"
   d="m 104.56445,11.770996 h -6.290036 l 11.764646,21.81543 h 6.44336 z"
   id="path299" />
		<path
   style="stroke-width:1.29904;stroke-miterlimit:10"
   d="m 104.56445,11.770996 h -6.290036 l 11.764646,21.81543 h 6.44336 z"
   id="path301" />
		<path
   style="fill:#ffffff;fill-rule:evenodd;stroke:none;stroke-width:1.29911"
   d="m 98.015625,11.614746 h 6.291015 l -11.765624,21.81543 h -6.44336 z"
   id="path303" />
		<path
   style="stroke-width:1.29904;stroke-miterlimit:10"
   d="m 98.015625,11.614746 h 6.291015 l -11.765624,21.81543 h -6.44336 z"
   id="path305" />
		<path
   style="fill:#ffffff;fill-rule:evenodd;stroke:none;stroke-width:1.29911"
   d="m 110.13867,11.549805 h 6.29102 l -11.76367,21.817383 h -6.445317 z"
   id="path307" />
		<path
   style="stroke-width:1.29904;stroke-miterlimit:10"
   d="m 110.13867,11.549805 h 6.29102 l -11.76367,21.817383 h -6.445317 z"
   id="path309" />
		<path
   style="fill:#313390;fill-rule:evenodd;stroke:none;stroke-width:1.29911"
   d="m 128.48633,11.717773 h -6.29004 l 11.76465,21.81543 h 6.44336 z"
   id="path311" />
		<path
   style="stroke-width:1.29904;stroke-miterlimit:10"
   d="m 128.48633,11.717773 h -6.29004 l 11.76465,21.81543 h 6.44336 z"
   id="path313" />
		<path
   style="fill:#ffffff;fill-rule:evenodd;stroke:none;stroke-width:1.29911"
   d="m 121.97266,11.714356 h 6.28906 l -11.76367,21.815918 h -6.44532 z"
   id="path315" />
		<path
   style="stroke-width:1.29904;stroke-miterlimit:10"
   d="m 121.97266,11.714356 h 6.28906 l -11.76367,21.815918 h -6.44532 z"
   id="path317" />
		<path
   style="fill:#313390;fill-rule:evenodd;stroke:none;stroke-width:1.29911"
   d="M 44.647949,11.651367 H 38.35791 l 11.764648,21.81543 h 6.44336 z"
   id="path319" />
		<path
   style="stroke-width:1.29904;stroke-miterlimit:10"
   d="M 44.647949,11.651367 H 38.35791 l 11.764648,21.81543 h 6.44336 z"
   id="path321" />
		<path
   style="fill:#313390;fill-rule:evenodd;stroke:none;stroke-width:1.29911"
   d="m 32.868164,11.43457 h -6.290039 l 11.764648,21.815918 h 6.444336 z"
   id="path323" />
		<path
   style="stroke-width:1.29904;stroke-miterlimit:10"
   d="m 32.868164,11.43457 h -6.290039 l 11.764648,21.815918 h 6.444336 z"
   id="path325" />
		<path
   style="fill:#ffffff;fill-rule:evenodd;stroke:none;stroke-width:1.29911"
   d="m 50.223144,11.431152 h 6.29004 L 44.748535,33.24707 H 38.303711 L 50.223145,11.431152 Z"
   id="path327" />
		<path
   style="stroke-width:1.29904;stroke-miterlimit:10"
   d="m 50.223144,11.431152 h 6.29004 L 44.748535,33.24707 H 38.303711 L 50.223145,11.431152 Z"
   id="path329" />
		<path
   style="fill:#313390;fill-rule:evenodd;stroke:none;stroke-width:1.29911"
   d="m 20.957031,11.43457 h -6.290039 l 11.76416,21.815918 h 6.444336 z"
   id="path331" />
		<path
   style="stroke-width:1.29904;stroke-miterlimit:10"
   d="m 20.957031,11.43457 h -6.290039 l 11.76416,21.815918 h 6.444336 z"
   id="path333" />
		<path
   style="fill:#ffffff;fill-rule:evenodd;stroke:none;stroke-width:1.29911"
   d="m 38.34082,11.43457 h 6.290039 L 32.866211,33.250488 h -6.443359 z"
   id="path335" />
		<path
   style="stroke-width:1.29904;stroke-miterlimit:10"
   d="m 38.34082,11.43457 h 6.290039 L 32.866211,33.250488 h -6.443359 z"
   id="path337" />
		<path
   style="fill:#ffffff;fill-rule:evenodd;stroke:none;stroke-width:1.29911"
   d="m 26.584961,11.43457 h 6.290527 L 21.112305,33.250488 h -6.445313 z"
   id="path339" />
		<path
   style="stroke-width:1.29904;stroke-miterlimit:10"
   d="m 26.584961,11.43457 h 6.290527 L 21.112305,33.250488 h -6.445313 z"
   id="path341" />
		<path
   style="fill:#313390;fill-rule:evenodd;stroke:none;stroke-width:1.29911"
   d="m 140.38281,11.606445 h -6.29101 l 11.76562,21.816895 h 6.44336 z"
   id="path343" />
		<path
   style="stroke-width:1.29904;stroke-miterlimit:10"
   d="m 140.38281,11.606445 h -6.29101 l 11.76562,21.816895 h 6.44336 z"
   id="path345" />
		<path
   style="fill:#ffffff;fill-rule:evenodd;stroke:none;stroke-width:1.29911"
   d="m 134.0625,11.498047 h 6.28906 l -11.76367,21.81543 h -6.44726 z"
   id="path347" />
		<path
   style="stroke-width:1.29904;stroke-miterlimit:10"
   d="m 134.0625,11.498047 h 6.28906 l -11.76367,21.81543 h -6.44726 z"
   id="path349" />
		<path
   style="fill:#ffffff;fill-rule:evenodd;stroke:none;stroke-width:1.29911"
   d="m 145.89258,11.663086 h 6.29004 l -11.7627,21.81543 h -6.44531 z"
   id="path351" />
		<path
   style="stroke-width:1.29904;stroke-miterlimit:10"
   d="m 145.89258,11.663086 h 6.29004 l -11.7627,21.81543 h -6.44531 z"
   id="path353" />
		<path
   style="fill:#313390;fill-rule:evenodd;stroke:none;stroke-width:1.29911"
   d="m 68.88916,209.93262 h -6.290527 l 11.763672,21.81543 h 6.445312 z"
   id="path355" />
		<path
   style="stroke-width:1.29904;stroke-miterlimit:10"
   d="m 68.88916,209.93262 h -6.290527 l 11.763672,21.81543 h 6.445312 z"
   id="path357" />
		<path
   style="fill:#313390;fill-rule:evenodd;stroke:none;stroke-width:1.29911"
   d="m 56.993652,210.04395 h -6.291504 l 11.764649,21.8164 h 6.445312 z"
   id="path359" />
		<path
   style="stroke-width:1.29904;stroke-miterlimit:10"
   d="m 56.993652,210.04395 h -6.291504 l 11.764649,21.8164 h 6.445312 z"
   id="path361" />
		<path
   style="fill:#ffffff;fill-rule:evenodd;stroke:none;stroke-width:1.29911"
   d="m 62.566894,209.8252 h 6.291993 l -11.76416,21.81445 h -6.44629 z"
   id="path363" />
		<path
   style="stroke-width:1.29904;stroke-miterlimit:10"
   d="m 62.566894,209.8252 h 6.291993 l -11.76416,21.81445 h -6.44629 z"
   id="path365" />
		<path
   style="fill:#313390;fill-rule:evenodd;stroke:none;stroke-width:1.29911"
   d="m 80.94873,210.09277 h -6.28955 l 11.763672,21.81446 h 6.444336 z"
   id="path367" />
		<path
   style="stroke-width:1.29904;stroke-miterlimit:10"
   d="m 80.94873,210.09277 h -6.28955 l 11.763672,21.81446 h 6.444336 z"
   id="path369" />
		<path
   style="fill:#ffffff;fill-rule:evenodd;stroke:none;stroke-width:1.29911"
   d="m 74.399902,209.98926 h 6.290039 l -11.76416,21.8164 h -6.444824 z"
   id="path371" />
		<path
   style="stroke-width:1.29904;stroke-miterlimit:10"
   d="m 74.399902,209.98926 h 6.290039 l -11.76416,21.8164 h -6.444824 z"
   id="path373" />
		<path
   style="fill:#313390;fill-rule:evenodd;stroke:none;stroke-width:1.29911"
   d="m 116.80078,210.08203 h -6.29101 l 11.76562,21.81543 h 6.44531 z"
   id="path375" />
		<path
   style="stroke-width:1.29904;stroke-miterlimit:10"
   d="m 116.80078,210.08203 h -6.29101 l 11.76562,21.81543 h 6.44531 z"
   id="path377" />
		<path
   style="fill:#313390;fill-rule:evenodd;stroke:none;stroke-width:1.29911"
   d="m 92.845703,209.98047 h -6.291015 l 11.763671,21.81641 h 6.446291 z"
   id="path379" />
		<path
   style="stroke-width:1.29904;stroke-miterlimit:10"
   d="m 92.845703,209.98047 h -6.291015 l 11.763671,21.81641 h 6.446291 z"
   id="path381" />
		<path
   style="fill:#ffffff;fill-rule:evenodd;stroke:none;stroke-width:1.29911"
   d="M 86.523438,209.87305 H 92.81543 L 81.050781,231.68848 H 74.605957 Z"
   id="path383" />
		<path
   style="stroke-width:1.29904;stroke-miterlimit:10"
   d="M 86.523438,209.87305 H 92.81543 L 81.050781,231.68848 H 74.605957 Z"
   id="path385" />
		<path
   style="fill:#313390;fill-rule:evenodd;stroke:none;stroke-width:1.29911"
   d="m 104.90625,210.19434 h -6.292969 l 11.765629,21.81543 h 6.44531 z"
   id="path387" />
		<path
   style="stroke-width:1.29904;stroke-miterlimit:10"
   d="m 104.90625,210.19434 h -6.292969 l 11.765629,21.81543 h 6.44531 z"
   id="path389" />
		<path
   style="fill:#ffffff;fill-rule:evenodd;stroke:none;stroke-width:1.29911"
   d="m 98.355469,210.03809 h 6.291011 L 92.880859,231.85254 H 86.4375 Z"
   id="path391" />
		<path
   style="stroke-width:1.29904;stroke-miterlimit:10"
   d="m 98.355469,210.03809 h 6.291011 L 92.880859,231.85254 H 86.4375 Z"
   id="path393" />
		<path
   style="fill:#ffffff;fill-rule:evenodd;stroke:none;stroke-width:1.29911"
   d="m 110.47949,209.97168 h 6.29004 l -11.76172,21.81836 h -6.446287 z"
   id="path395" />
		<path
   style="stroke-width:1.29904;stroke-miterlimit:10"
   d="m 110.47949,209.97168 h 6.29004 l -11.76172,21.81836 h -6.446287 z"
   id="path397" />
		<path
   style="fill:#313390;fill-rule:evenodd;stroke:none;stroke-width:1.29911"
   d="m 128.65234,210.20801 h -6.29101 l 11.76562,21.8164 h 6.44336 z"
   id="path399" />
		<path
   style="stroke-width:1.29904;stroke-miterlimit:10"
   d="m 128.65234,210.20801 h -6.29101 l 11.76562,21.8164 h 6.44336 z"
   id="path401" />
		<path
   style="fill:#ffffff;fill-rule:evenodd;stroke:none;stroke-width:1.29911"
   d="m 122.3125,210.1377 h 6.28906 l -11.76367,21.81543 h -6.44531 z"
   id="path403" />
		<path
   style="stroke-width:1.29904;stroke-miterlimit:10"
   d="m 122.3125,210.1377 h 6.28906 l -11.76367,21.81543 h -6.44531 z"
   id="path405" />
		<path
   style="fill:#313390;fill-rule:evenodd;stroke:none;stroke-width:1.29911"
   d="M 44.988281,210.07422 H 38.69873 l 11.763672,21.81543 h 6.444336 z"
   id="path407" />
		<path
   style="stroke-width:1.29904;stroke-miterlimit:10"
   d="M 44.988281,210.07422 H 38.69873 l 11.763672,21.81543 h 6.444336 z"
   id="path409" />
		<path
   style="fill:#313390;fill-rule:evenodd;stroke:none;stroke-width:1.29911"
   d="m 32.999023,210.11621 h -6.291015 l 11.764648,21.81641 h 6.444336 z"
   id="path411" />
		<path
   style="stroke-width:1.29904;stroke-miterlimit:10"
   d="m 32.999023,210.11621 h -6.291015 l 11.764648,21.81641 h 6.444336 z"
   id="path413" />
		<path
   style="fill:#ffffff;fill-rule:evenodd;stroke:none;stroke-width:1.29911"
   d="m 50.563965,209.85449 h 6.289062 l -11.763183,21.81543 h -6.444336 z"
   id="path415" />
		<path
   style="stroke-width:1.29904;stroke-miterlimit:10"
   d="m 50.563965,209.85449 h 6.289062 l -11.763183,21.81543 h -6.444336 z"
   id="path417" />
		<path
   style="fill:#313390;fill-rule:evenodd;stroke:none;stroke-width:1.29911"
   d="m 140.54785,210.09766 h -6.29004 l 11.7627,21.81738 h 6.44629 z"
   id="path419" />
		<path
   style="stroke-width:1.29904;stroke-miterlimit:10"
   d="m 140.54785,210.09766 h -6.29004 l 11.7627,21.81738 h 6.44629 z"
   id="path421" />
		<path
   style="fill:#ffffff;fill-rule:evenodd;stroke:none;stroke-width:1.29911"
   d="m 134.22754,209.98926 h 6.29004 l -11.76367,21.8164 h -6.44727 z"
   id="path423" />
		<path
   style="stroke-width:1.29904;stroke-miterlimit:10"
   d="m 134.22754,209.98926 h 6.29004 l -11.76367,21.8164 h -6.44727 z"
   id="path425" />
		<path
   style="fill:#ffffff;fill-rule:evenodd;stroke:none;stroke-width:1.29911"
   d="m 146.05859,210.15332 h 6.28907 l -11.76368,21.81641 h -6.44433 z"
   id="path427" />
		<path
   style="stroke-width:1.29904;stroke-miterlimit:10"
   d="m 146.05859,210.15332 h 6.28907 l -11.76368,21.81641 h -6.44433 z"
   id="path429" />
		<path
   style="fill:#ffffff;fill-rule:evenodd;stroke:none;stroke-width:1.29911"
   d="M 38.572754,209.89551 H 44.86377 L 33.099121,231.71387 H 26.655273 Z"
   id="path431" />
		<path
   style="stroke-width:1.29904;stroke-miterlimit:10"
   d="M 38.572754,209.89551 H 44.86377 L 33.099121,231.71387 H 26.655273 Z"
   id="path433" />
		<path
   style="fill:#313390;fill-rule:evenodd;stroke:none;stroke-width:1.29911"
   d="m 20.994629,210.14746 h -6.291016 l 11.764649,21.81543 h 6.444824 z"
   id="path435" />
		<path
   style="stroke-width:1.29904;stroke-miterlimit:10"
   d="m 20.994629,210.14746 h -6.291016 l 11.764649,21.81543 h 6.444824 z"
   id="path437" />
		<path
   style="fill:#ffffff;fill-rule:evenodd;stroke:none;stroke-width:1.29911"
   d="m 26.568848,209.92578 h 6.291015 l -11.76416,21.81738 h -6.446289 z"
   id="path439" />
		<path
   style="stroke-width:1.29904;stroke-miterlimit:10"
   d="m 26.568848,209.92578 h 6.291015 l -11.76416,21.81738 h -6.446289 z"
   id="path441" />
		<path
   style="stroke:#000000;stroke-width:0.493431;stroke-linecap:butt;stroke-linejoin:miter"
   d="m 166.83008,235.54492 c 0,3.77442 -3.08594,6.87012 -6.8711,6.87012 H 7.1108398 C 3.3359375,242.41504 0.25,239.31934 0.25,235.54492 V 7.1196289 C 0.25,3.340332 3.3359375,0.25 7.1108398,0.25 H 159.95898 c 3.78516,0 6.8711,3.090332 6.8711,6.8696289 z"
   id="path443" />
	</g></g>
</svg>
